<svg height="480pt" viewBox="-40 0 480 480.00503" width="480pt" xmlns="http://www.w3.org/2000/svg"><path d="m280.003906 116.003906c0 15.464844-12.539062 28-28 28-15.433594-.074218-27.925781-12.566406-28-28v-60c.023438-8.824218 7.171875-15.972656 16-16h39.199219c.550781 2.632813.820313 5.3125.800781 8zm0 0" fill="#bddbff"/><path d="m200.800781 40.003906h39.203125c-8.828125.027344-15.976562 7.175782-16 16v60c.074219 15.433594 12.566406 27.925782 28 28 15.460938 0 28-12.535156 28-28v-68c.019532-2.6875-.25-5.367187-.800781-8h32.800781c8.824219.027344 15.972656 7.175782 16 16v400c-.027344 8.828125-7.175781 15.976563-16 16h-288c-8.828125-.023437-15.976562-7.171875-16-16v-400c.023438-8.824218 7.171875-15.972656 16-16h32v80l24-24 24 24v-80zm0 0" fill="#bddbff"/><g fill="#3d9ae2"><path d="m376.003906 32.003906h-90.800781c-6.753906-19.175781-24.871094-32.003906-45.199219-32.003906-20.332031 0-38.449218 12.828125-45.203125 32.003906h-170.796875c-13.257812 0-23.99999975 10.746094-23.99999975 24v400c0 13.257813 10.74218775 24 23.99999975 24h352c13.253906 0 24-10.742187 24-24v-400c0-13.253906-10.746094-24-24-24zm-280 16v52.6875l-10.34375-10.34375c-3.125-3.121094-8.191406-3.121094-11.3125 0l-10.34375 10.34375v-52.6875zm184 416h-256c-4.417968 0-8-3.582031-8-8v-400c0-4.417968 3.582032-8 8-8h24v72c0 3.234375 1.949219 6.152344 4.9375 7.390625 2.988282 1.238281 6.429688.554688 8.71875-1.734375l18.34375-18.34375 18.34375 18.34375c2.285156 2.289063 5.726563 2.972656 8.714844 1.734375s4.9375-4.15625 4.941406-7.390625v-72h80v96h16v-96c0-17.671875 14.324219-32 32-32 17.671875 0 32 14.328125 32 32v68c0 11.046875-8.957031 20-20 20-11.046875 0-20-8.953125-20-20v-60c0-4.417968 3.582032-8 8-8 4.417969 0 8 3.582032 8 8v64h16v-64c0-13.253906-10.746094-24-24-24-13.257812 0-24 10.746094-24 24v60c0 19.882813 16.117188 36 36 36 19.882813 0 36-16.117187 36-36v-68h24c4.417969 0 8 3.582032 8 8v400c0 4.417969-3.582031 8-8 8zm54.527344 0c.945312-2.5625 1.445312-5.265625 1.472656-8v-400c-.027344-2.730468-.527344-5.4375-1.472656-8h9.472656c4.417969 0 8 3.582032 8 8v400c0 4.417969-3.582031 8-8 8zm49.472656-8c0 4.417969-3.582031 8-8 8h-9.472656c.945312-2.5625 1.445312-5.265625 1.472656-8v-400c-.027344-2.730468-.527344-5.4375-1.472656-8h9.472656c4.417969 0 8 3.582032 8 8zm0 0"/><path d="m48.003906 184.003906h240v16h-240zm0 0"/><path d="m48.003906 232.003906h240v16h-240zm0 0"/><path d="m48.003906 280.003906h240v16h-240zm0 0"/><path d="m48.003906 328.003906h240v16h-240zm0 0"/><path d="m48.003906 376.003906h240v16h-240zm0 0"/></g></svg>